<svg aria-hidden="true" style="position:absolute;width:0;height:0" xmlns="http://www.w3.org/2000/svg" overflow="hidden"><defs><symbol id="icon-5" viewBox="0 0 32 32"><path fill="var(--color1, #1a82b7)" d="M3.433 0h25.134A3.433 3.433 0 0132 3.433v25.134A3.433 3.433 0 0128.567 32H3.433A3.433 3.433 0 010 28.567V3.433A3.433 3.433 0 013.433 0z"/><path fill="var(--color2, #abbdd5)" d="M21.088 12.261c.123-.245.368-.245.368-.613-.49 0-.858.368-1.103.49l-8.215 5.149 1.594 5.027c.245-.245.245-.49.245-.981 0-.245.123-.736.123-.981v-.858c.123-.123.123-.245.123-.49v-.368c.123-.245.245-.123.368-.368 1.839-1.962 4.414-4.169 6.498-6.008z"/><path fill="var(--color3, #ccd8e6)" d="M8.092 15.816l4.046 1.471 8.582-5.395c.245-.123.49-.245.736-.245 0 .368-.49.736-.736.981-1.839 1.594-4.904 3.923-6.498 5.762l1.471 1.103c.245 0 .858.613.981.736.245.123 1.226.858 1.349 1.103.245 0 .245.123.368.245l1.226.858c.49.368.981.981 1.839.368l2.697-12.261c.368-2.084-.613-1.716-1.962-1.226L8.459 14.833c-.49.245-.981.858-.368.981z"/><path fill="var(--color3, #ccd8e6)" d="M13.732 22.314l.123.123c.245 0 .49-.123.736-.368l2.084-1.839c-.123-.123-.736-.736-.981-.736l-1.471-1.103-.49 3.923z"/></symbol></defs></svg>