<svg aria-hidden="true" style="position:absolute;width:0;height:0" xmlns="http://www.w3.org/2000/svg" overflow="hidden"><defs><symbol id="icon-1" viewBox="0 0 32 32"><path d="M27.313 0H4.688A4.694 4.694 0 000 4.688v22.625A4.693 4.693 0 004.688 32h9.438V20.687h-3.75v-5.625h3.75V11.25a5.63 5.63 0 015.625-5.625h5.688v5.625h-5.688v3.812h5.688l-.938 5.625h-4.75V32h7.563a4.693 4.693 0 004.687-4.687V4.688A4.694 4.694 0 0027.314 0z"/></symbol><symbol id="icon-2" viewBox="0 0 32 32"><path d="M23.169 0H8.831C3.962 0 0 3.962 0 8.831v14.338C0 28.038 3.961 32 8.831 32h14.338C28.039 32 32 28.038 32 23.169V8.831C32 3.962 28.039 0 23.169 0zm5.992 23.169a5.999 5.999 0 01-5.992 5.992H8.83a5.998 5.998 0 01-5.991-5.992V8.831A5.999 5.999 0 018.83 2.839h14.338a5.999 5.999 0 015.992 5.992v14.338z"/><path d="M16 7.755c-4.547 0-8.246 3.699-8.246 8.246s3.699 8.245 8.246 8.245 8.246-3.699 8.246-8.245c0-4.547-3.699-8.246-8.246-8.246zm0 13.651c-2.981 0-5.406-2.425-5.406-5.406s2.425-5.406 5.406-5.406 5.406 2.425 5.406 5.406A5.412 5.412 0 0116 21.406zm8.591-16.059c-.547 0-1.084.221-1.471.609a2.093 2.093 0 00-.611 1.473 2.1 2.1 0 00.611 1.473c.386.386.924.609 1.471.609.549 0 1.085-.223 1.473-.609a2.1 2.1 0 00.61-1.473 2.09 2.09 0 00-.61-1.473 2.091 2.091 0 00-1.473-.609z"/></symbol><symbol id="icon-3" viewBox="0 0 39 32"><path d="M39.385 3.788a16.86 16.86 0 01-4.652 1.275A8.029 8.029 0 0038.285.6a16.134 16.134 0 01-5.12 1.954 8.091 8.091 0 00-5.898-2.555c-4.47 0-8.069 3.628-8.069 8.076 0 .64.054 1.255.187 1.841C12.672 9.589 6.733 6.371 2.743 1.47a8.126 8.126 0 00-1.105 4.081 8.087 8.087 0 003.586 6.71 7.981 7.981 0 01-3.648-.994v.089c0 3.924 2.799 7.183 6.469 7.934a8.047 8.047 0 01-2.117.266c-.517 0-1.039-.03-1.529-.138 1.046 3.198 4.015 5.548 7.545 5.625a16.223 16.223 0 01-10.011 3.444c-.662 0-1.297-.03-1.932-.111 3.577 2.306 7.815 3.623 12.386 3.623 14.858 0 22.981-12.308 22.981-22.976 0-.357-.012-.702-.03-1.044 1.602-1.137 2.949-2.558 4.047-4.192z"/></symbol><symbol id="icon-4" viewBox="0 0 32 32"><path d="M27.313 0H4.688A4.694 4.694 0 000 4.688v22.625A4.693 4.693 0 004.688 32h22.625A4.693 4.693 0 0032 27.313V4.688A4.694 4.694 0 0027.313 0zm-16 25.375h-3.75V12.25h3.75v13.125zm0-15h-3.75v-3.75h3.75v3.75zm13.125 15h-3.75v-7.5c0-1.034-.841-1.875-1.875-1.875s-1.875.841-1.875 1.875v7.5h-3.75V12.25h3.75v.707c.982-.305 1.621-.707 2.812-.707 2.543.003 4.688 2.284 4.688 4.98v8.145z"/></symbol><symbol id="icon-6" viewBox="0 0 32 32"><path d="M17.85 11.191a4.232 4.232 0 00-.538-.066c-.266-.016-.316-.009-.436.05a.588.588 0 00-.177.884c.127.149.244.193.633.24.828.101 1.319.411 1.597 1.007.13.281.206.584.247 1.017.035.325.082.445.234.559.209.161.553.155.74-.016.199-.183.234-.404.149-.966-.127-.862-.414-1.462-.939-1.958-.408-.382-.886-.619-1.509-.752zm-.673-2.384c-.756-.114-1.009-.072-1.173.182a.575.575 0 00.047.714c.117.136.288.199.598.224.857.069 1.796.351 2.432.729a4.81 4.81 0 011.765 1.835c.367.669.579 1.532.579 2.35 0 .53.073.726.316.85.145.076.408.082.531.019a.715.715 0 00.288-.313c.044-.114.044-.799.003-1.175a6.279 6.279 0 00-1.006-2.798c-.974-1.446-2.46-2.337-4.38-2.618zM9.729 6.859c-.227-.082-.585-.117-.79-.073-.3.063-.677.287-1.493.894-.49.366-1.164 1.023-1.322 1.288-.367.629-.345 1.162.101 2.39.765 2.106 1.885 4.137 3.356 6.095 2.815 3.748 6.36 6.477 10.8 8.305.566.234.75.271 1.192.25.538-.025.946-.192 1.521-.628.636-.483 1.546-1.614 1.78-2.217.221-.572.164-1.09-.165-1.494-.187-.224-1.566-1.349-2.211-1.8a18.898 18.898 0 00-1.597-.991c-.459-.234-.914-.275-1.36-.123-.351.12-.468.224-.98.869a18.24 18.24 0 01-.541.654 1.517 1.517 0 01-.25.139c-.414.192-.98.076-1.907-.385-.721-.357-1.36-.808-2.084-1.471-.617-.562-1.24-1.295-1.588-1.866-.449-.736-.79-1.693-.794-2.22 0-.227.092-.55.206-.714.044-.066.326-.316.626-.559.75-.603.917-.793 1.018-1.152.098-.335-.007-.786-.319-1.396-.547-1.067-2.22-3.205-2.821-3.603a2.07 2.07 0 00-.38-.189zm7.229-.341c-.215-.025-.61-.057-.88-.067-.515-.016-.62.003-.768.139-.243.218-.231.685.022.884.136.104.24.126.841.161 1.777.104 3.134.584 4.447 1.569 1.575 1.178 2.562 2.82 2.935 4.876.095.524.142.963.174 1.642.019.442.035.54.092.654.18.344.709.395.949.088.127-.158.142-.281.12-.834-.06-1.62-.411-3.091-1.028-4.329-.443-.887-.86-1.459-1.613-2.213-.803-.799-1.41-1.238-2.359-1.702a8.82 8.82 0 00-2.932-.869zM16 0c8.837 0 16 7.163 16 16s-7.163 16-16 16S0 24.837 0 16 7.163 0 16 0z"/></symbol><symbol id="icon-7" viewBox="0 0 32 32"><path d="M31.563 4.989a2.503 2.503 0 00-2.066-1.097H2.503A2.5 2.5 0 00.469 4.95l15.58 12.991L31.562 4.988z"/><path d="M.003 7.164v18.444c0 1.375 1.125 2.5 2.5 2.5h26.994c1.375 0 2.5-1.125 2.5-2.5V7.23L16.05 20.545.003 7.164z"/></symbol><symbol id="icon-5" viewBox="0 0 32 32"><path d="M3.433 0h25.134A3.433 3.433 0 0132 3.433v25.134A3.433 3.433 0 0128.567 32H3.433A3.433 3.433 0 010 28.567V3.433A3.433 3.433 0 013.433 0z"/><path d="M21.088 12.261c.123-.245.368-.245.368-.613-.49 0-.858.368-1.103.49l-8.215 5.149 1.594 5.027c.245-.245.245-.49.245-.981 0-.245.123-.736.123-.981v-.858c.123-.123.123-.245.123-.49v-.368c.123-.245.245-.123.368-.368 1.839-1.962 4.414-4.169 6.498-6.008z"/><path fill="#ccd8e6" d="M8.092 15.816l4.046 1.471 8.582-5.395c.245-.123.49-.245.736-.245 0 .368-.49.736-.736.981-1.839 1.594-4.904 3.923-6.498 5.762l1.471 1.103c.245 0 .858.613.981.736.245.123 1.226.858 1.349 1.103.245 0 .245.123.368.245l1.226.858c.49.368.981.981 1.839.368l2.697-12.261c.368-2.084-.613-1.716-1.962-1.226L8.459 14.833c-.49.245-.981.858-.368.981z"/><path fill="#ccd8e6" d="M13.732 22.314l.123.123c.245 0 .49-.123.736-.368l2.084-1.839c-.123-.123-.736-.736-.981-.736l-1.471-1.103-.49 3.923z"/></symbol></defs></svg>